# xmcd CD database file
#
# Track frame offsets:
#	150
#	16490
#	30792
#	48042
#	63412
#	76870
#	93042
#	110282
#	126867
#	140447
#	154167
#	166907
#	182215
#	195505
#	207927
#	218905
#	231565
#	245250
#	262675
#	287482
#	302060
#	316362
#
# Disc length: 4411 seconds
#
# Revision: 0
# Processed by: cddbd v1.5.2PL0 Copyright (c) Steve Scherf et al.
# Submitted via: CDex 1.51
#
DISCID=1d113916
DTITLE=Daydream - Golden Memories
DYEAR=2003
DGENRE=Country
TTITLE0=We All Get Lucky Sometimes
TTITLE1=Wasting Time With You
TTITLE2=I Guess, I Wanna Dance With You
TTITLE3=I Feel Lucky
TTITLE4=There Goes My Heart
TTITLE5=Blue Hawaii
TTITLE6=Moonflower
TTITLE7=You're Still The One
TTITLE8=The Losing Side Of Me
TTITLE9=Look At Us
TTITLE10=Forget Me
TTITLE11=Someone Had To Teach You
TTITLE12=Paralyzed
TTITLE13=Be My Baby
TTITLE14=Hurricane Beat
TTITLE15=Wait A Minute
TTITLE16=Pictures And Memories
TTITLE17=Walk In The Room
TTITLE18=She's Not You - Love Me
TTITLE19=Heart Is Right
TTITLE20=She's Not Crying Anymore
TTITLE21=Sweet Nothin's
EXTD=YEAR: 2003
EXTT0=
EXTT1=
EXTT2=
EXTT3=
EXTT4=
EXTT5=
EXTT6=
EXTT7=
EXTT8=
EXTT9=
EXTT10=
EXTT11=
EXTT12=
EXTT13=
EXTT14=
EXTT15=
EXTT16=
EXTT17=
EXTT18=
EXTT19=
EXTT20=
EXTT21=
PLAYORDER=
